<svg aria-hidden="true" fill="currentColor" xmlns="http://www.w3.org/2000/svg" viewBox="0 0 512 512" height="512" width="512">
  <title>Workflow</title>
  <path d="M139.1206 316.4945C145.3648 316.4945 150.436 321.5849 150.4396 327.8465V395.8925C150.4396 402.1565 145.3672 407.2439 139.1206 407.2439H71.2691C65.0226 407.2439 59.95 402.1565 59.95 395.8925V327.8465C59.9532 321.5849 65.0246 316.4945 71.2691 316.4945H139.1206Z"></path>
  <path d="M214.525 210.6377C220.7674 210.6377 225.838 215.7089 225.844 221.9687V298.0745C226.1014 308.2553 234.388 316.4405 244.5898 316.4945H289.9288C296.1736 316.4945 301.2448 321.5849 301.2484 327.8465V395.8925C301.2484 402.1565 296.1754 407.2439 289.9288 407.2439H222.0778C215.83 407.2439 210.7588 402.1565 210.7588 395.8925V319.7861C210.4984 309.7385 202.4116 301.6433 192.3916 301.3871L191.9074 301.3661H146.6734C140.4286 301.3661 135.3568 296.2979 135.3544 290.0357V221.9687C135.3604 215.7089 140.4304 210.6377 146.6734 210.6377H214.525Z"></path>
  <path d="M289.9288 104.76C296.1736 104.76 301.2448 109.8497 301.2484 116.1116V192.2177C301.5088 202.4309 309.8524 210.6377 320.0992 210.6377H365.3332C371.5762 210.6377 376.6462 215.7089 376.6522 221.9687V298.0745C376.9102 308.2559 385.1968 316.4405 395.3986 316.4945H440.7376C446.9818 316.4945 452.0536 321.5849 452.0566 327.8465V395.8925C452.0566 402.1565 446.9842 407.2439 440.7376 407.2439H372.8866C366.6388 407.2439 361.5676 402.1565 361.5676 395.8925V319.7861C361.3072 309.7385 353.2204 301.6433 343.2004 301.3871L342.7162 301.3661H297.4822C291.2362 301.3661 286.1656 296.2979 286.1632 290.0357V213.9293C285.91 203.8757 277.8208 195.7643 267.796 195.5093H222.0778C215.83 195.5093 210.7588 190.4225 210.7588 184.1579V116.1116C210.7618 109.8497 215.8324 104.76 222.0778 104.76H289.9288Z"></path>
</svg>
